<?xml version="1.0" encoding="utf-8"?>
<!-- Generator: Adobe Illustrator 16.0.0, SVG Export Plug-In . SVG Version: 6.00 Build 0)  -->
<!DOCTYPE svg PUBLIC "-//W3C//DTD SVG 1.1//EN" "http://www.w3.org/Graphics/SVG/1.1/DTD/svg11.dtd">
<svg version="1.1" id="Layer_1" xmlns="http://www.w3.org/2000/svg" xmlns:xlink="http://www.w3.org/1999/xlink" x="0px" y="0px"
	 width="58.755px" height="53.307px" viewBox="0 0 58.755 53.307" enable-background="new 0 0 58.755 53.307" xml:space="preserve">
<g>
	<path fill="#65BBA7" d="M24.799,41.922c0.042-0.037,0.083-0.073,0.123-0.111c0.177-0.158,0.352-0.309,0.524-0.456
		c0.215-0.184,0.427-0.365,0.626-0.551l1.338-1.214c-1.889-0.075-3.716-0.227-5.465-0.443l2.177,2.14
		C24.342,41.506,24.569,41.714,24.799,41.922z"/>
	<path fill="#65BBA7" d="M6.832,40.985l-0.185,0.019c0.205,0.244,0.418,0.485,0.641,0.723C7.139,41.497,6.988,41.253,6.832,40.985z"
		/>
	<path fill="#65BBA7" d="M6.581,34.81c0.374,0.884,0.703,1.632,1.035,2.348c0.115,0.26,0.24,0.51,0.367,0.764
		c0.087,0.175,0.174,0.351,0.259,0.528c0.084-0.064,0.171-0.129,0.258-0.194c0.151-0.129,0.338-0.279,0.533-0.428
		c0.097-0.088,0.2-0.173,0.303-0.258c0.081-0.066,0.161-0.133,0.239-0.202c0.069-0.065,0.154-0.14,0.239-0.214
		c0.028-0.023,0.056-0.048,0.084-0.072c-0.514-0.79-0.78-1.286-0.792-1.311l-0.057-0.105c-1.092-0.543-2.046-1.128-2.835-1.749
		L6.581,34.81z"/>
	<path fill="#65BBA7" d="M26.874,46.858c-0.367-0.279-0.727-0.58-1.074-0.87c-0.174-0.146-0.348-0.291-0.524-0.435
		c-0.193-0.176-0.377-0.344-0.557-0.51c-0.21,0.164-0.42,0.325-0.631,0.482c-0.526,0.366-0.976,0.665-1.394,0.928
		c-0.039,0.022-0.077,0.045-0.114,0.067c0.208,0.147,0.404,0.273,0.597,0.397l0.1,0.063c0.206,0.142,0.412,0.271,0.683,0.431
		c0.23,0.145,0.444,0.264,0.649,0.374l0.152,0.085c0.148,0.083,0.29,0.164,0.433,0.229l0.575,0.283l0.463,0.201
		c0.188,0.086,0.346,0.144,0.476,0.191c0.028,0.01,0.055,0.021,0.081,0.029c0.213-0.141,0.438-0.286,0.679-0.438
		c0.16-0.097,0.313-0.208,0.474-0.325l0.273-0.196c-0.177-0.121-0.353-0.248-0.524-0.377C27.425,47.276,27.148,47.07,26.874,46.858z
		"/>
	<path fill="#65BBA7" d="M29.169,45.719c0.271,0.227,0.528,0.441,0.795,0.629l0.144,0.108l0.125-0.095
		c0.285-0.201,0.541-0.415,0.812-0.643c0.229-0.19,0.46-0.384,0.704-0.567c0.303-0.239,0.603-0.5,0.92-0.775
		c0.189-0.164,0.379-0.329,0.572-0.491c0.143-0.126,0.286-0.253,0.432-0.38c-0.041-0.038-0.081-0.077-0.121-0.115
		c-0.402-0.368-0.776-0.754-1.118-1.114c-0.319-0.32-0.603-0.649-0.876-0.969l-0.104-0.12c-0.236-0.264-0.449-0.539-0.638-0.782
		l-0.178-0.229c-0.144-0.189-0.27-0.363-0.388-0.528c-0.013,0-0.025,0-0.038,0c-0.083,0-0.164-0.002-0.246-0.003
		c-0.117,0.164-0.241,0.336-0.383,0.522l-0.185,0.238c-0.188,0.243-0.401,0.519-0.645,0.79l-0.096,0.112
		c-0.274,0.319-0.557,0.648-0.887,0.979c-0.312,0.329-0.699,0.729-1.12,1.115c-0.036,0.034-0.072,0.068-0.108,0.103
		c0.146,0.13,0.294,0.26,0.441,0.39c0.182,0.152,0.371,0.316,0.56,0.48c0.318,0.276,0.619,0.538,0.933,0.786
		C28.709,45.335,28.94,45.528,29.169,45.719z"/>
	<path fill="#65BBA7" d="M15.028,40.023c0.172,0.171,0.349,0.343,0.528,0.516c0.047-0.05,0.093-0.099,0.138-0.147
		c0.063-0.068,0.126-0.137,0.191-0.203l0.187-0.197c0.105-0.109,0.208-0.218,0.306-0.327c0.117-0.144,0.255-0.302,0.391-0.456
		c0.162-0.184,0.319-0.361,0.454-0.539c0.075-0.091,0.143-0.177,0.212-0.264c-1.662-0.347-3.219-0.756-4.641-1.225
		c-0.071,0.13-0.14,0.26-0.221,0.383L15.028,40.023z"/>
	<path fill="#65BBA7" d="M24.534,49.614c-0.187-0.055-0.384-0.129-0.591-0.208l-0.143-0.054c-0.229-0.083-0.476-0.187-0.797-0.335
		c-0.563-0.246-1.13-0.534-1.676-0.85c-0.268-0.149-0.555-0.321-0.87-0.519c-0.152,0.07-0.302,0.139-0.447,0.201
		c-0.435,0.173-0.82,0.312-1.16,0.433c-0.103,0.042-0.208,0.075-0.312,0.104c2.065,0.651,4.28,1.129,6.598,1.414
		c-0.131-0.036-0.255-0.076-0.383-0.117L24.534,49.614z"/>
	<path fill="#65BBA7" d="M42.978,38.65c0.15,0.196,0.307,0.374,0.47,0.558c0.135,0.154,0.273,0.313,0.408,0.478
		c0.079,0.088,0.183,0.196,0.288,0.306l0.194,0.205c0.058,0.059,0.12,0.127,0.184,0.195c0.045,0.049,0.091,0.099,0.138,0.147
		c0.18-0.173,0.355-0.344,0.527-0.515l2.456-2.461c-0.068-0.104-0.128-0.217-0.189-0.327c-1.427,0.461-2.981,0.866-4.643,1.206
		C42.867,38.511,42.919,38.579,42.978,38.65z"/>
	<path fill="#65BBA7" d="M19.999,44.552c0.243,0.202,0.477,0.396,0.711,0.582c0.199-0.144,0.402-0.289,0.616-0.432
		c0.186-0.133,0.383-0.287,0.584-0.443c0.204-0.159,0.412-0.32,0.627-0.476l0.477-0.387c-0.211-0.217-0.428-0.444-0.634-0.672
		c-0.37-0.392-0.754-0.829-1.198-1.368c-0.314-0.362-0.602-0.737-0.854-1.069l-0.147-0.192c-0.345-0.455-0.641-0.874-0.889-1.244
		c-0.114,0.246-0.249,0.518-0.414,0.798c-0.176,0.343-0.417,0.706-0.672,1.092l-0.066,0.1c-0.094,0.128-0.167,0.228-0.241,0.329
		c-0.217,0.299-0.441,0.608-0.715,0.914c0.255,0.237,0.514,0.473,0.776,0.707c0.571,0.521,1.073,0.962,1.541,1.352
		C19.665,44.275,19.833,44.415,19.999,44.552z"/>
	<path fill="#65BBA7" d="M12.039,40c-0.25-0.303-0.501-0.623-0.763-0.97c-0.238,0.201-0.456,0.365-0.661,0.517
		c-0.261,0.176-0.505,0.321-0.74,0.461c-0.22,0.116-0.422,0.213-0.614,0.303c0.138,0.232,0.283,0.467,0.44,0.714
		c0.237,0.367,0.517,0.795,0.804,1.182c0.065,0.089,0.131,0.171,0.196,0.253c0.084,0.105,0.167,0.21,0.245,0.317l0.539,0.634
		l0.302,0.329l0.794-0.569l1-0.799c0.11-0.085,0.208-0.172,0.303-0.26c-0.209-0.225-0.413-0.447-0.613-0.667
		C12.813,40.948,12.401,40.445,12.039,40z"/>
	<path fill="#65BBA7" d="M16.838,47.489c0.121-0.065,0.295-0.16,0.516-0.275c0.07-0.041,0.168-0.09,0.274-0.143
		c0.149-0.075,0.303-0.152,0.454-0.248c0.194-0.118,0.399-0.242,0.617-0.37c-0.273-0.199-0.555-0.414-0.836-0.642
		c-0.539-0.434-1.095-0.903-1.65-1.395c-0.23-0.214-0.454-0.425-0.673-0.635c-0.095,0.09-0.195,0.179-0.304,0.267l-1.084,0.886
		l-0.554,0.383c0.009,0.007,0.018,0.014,0.027,0.021L16.838,47.489z"/>
	<path fill="#65BBA7" d="M47.635,43.17l0.795,0.569l0.024-0.026l0.56-0.628l0.281-0.34c0.053-0.076,0.136-0.181,0.22-0.286
		c0.065-0.082,0.131-0.164,0.193-0.25c0.287-0.385,0.557-0.798,0.809-1.188c0.158-0.249,0.304-0.484,0.438-0.711
		c-0.189-0.089-0.389-0.183-0.588-0.288c-0.262-0.154-0.506-0.3-0.743-0.459c-0.236-0.174-0.464-0.345-0.686-0.531
		c-0.26,0.345-0.512,0.665-0.763,0.969c-0.362,0.443-0.774,0.946-1.23,1.444c-0.2,0.219-0.403,0.441-0.612,0.666
		c0.095,0.088,0.191,0.174,0.297,0.255L47.635,43.17z"/>
	<path fill="#65BBA7" d="M55.805,32.668c0.001,0.012,0.009,0.291-0.026,0.759c-0.03,0.418-0.102,1.086-0.267,1.891
		c-0.06,0.298-0.155,0.756-0.296,1.243l-0.023,0.085c-0.117,0.412-0.238,0.839-0.408,1.284c-0.175,0.479-0.352,0.954-0.57,1.428
		c-0.097,0.205-0.195,0.408-0.297,0.612l0.267,0.254c1.716-2.315,2.681-4.913,2.681-7.66c0-0.654-0.06-1.299-0.166-1.936
		c-0.17,0.59-0.479,1.163-0.903,1.718L55.805,32.668z"/>
	<path fill="#65BBA7" d="M41.342,48.274c-0.316-0.112-0.701-0.251-1.116-0.415c-0.158-0.068-0.313-0.138-0.467-0.21
		c-0.314,0.197-0.604,0.37-0.879,0.523c-0.537,0.311-1.104,0.599-1.679,0.85c-0.309,0.144-0.557,0.247-0.793,0.332l-0.135,0.052
		c-0.208,0.079-0.405,0.153-0.602,0.211l-0.208,0.067c-0.133,0.043-0.258,0.082-0.381,0.117c2.317-0.285,4.53-0.763,6.596-1.414
		C41.57,48.356,41.458,48.321,41.342,48.274z"/>
	<path fill="#65BBA7" d="M31.733,49.94c-0.394-0.184-0.779-0.404-1.188-0.638l-0.36-0.204c-0.026-0.014-0.052-0.028-0.078-0.042
		c-0.029,0.016-0.059,0.031-0.088,0.048l-0.35,0.198c-0.408,0.233-0.794,0.454-1.193,0.641c-0.086,0.042-0.167,0.078-0.251,0.118
		c0.622,0.028,1.249,0.048,1.882,0.048s1.26-0.02,1.882-0.048C31.903,50.02,31.821,49.983,31.733,49.94z"/>
	<path fill="#65BBA7" d="M32.736,48.361c0.249,0.157,0.477,0.305,0.69,0.445c0.025-0.009,0.053-0.02,0.081-0.029
		c0.13-0.048,0.289-0.105,0.467-0.188l1.034-0.481c0.156-0.072,0.298-0.153,0.446-0.236l0.146-0.081
		c0.212-0.114,0.426-0.233,0.641-0.368c0.286-0.169,0.492-0.299,0.684-0.43l0.114-0.074c0.196-0.126,0.398-0.256,0.597-0.397
		c-0.033-0.02-0.067-0.04-0.102-0.061c-0.431-0.27-0.88-0.568-1.388-0.921c-0.222-0.166-0.438-0.331-0.648-0.496
		c-0.177,0.163-0.354,0.325-0.531,0.487c-0.204,0.168-0.381,0.315-0.557,0.462c-0.345,0.288-0.702,0.587-1.072,0.868
		c-0.27,0.209-0.547,0.415-0.823,0.615C32.35,47.6,32.177,47.724,32,47.846l0.272,0.194C32.428,48.155,32.579,48.266,32.736,48.361z
		"/>
	<path fill="#65BBA7" d="M6.298,39.97c-0.102-0.203-0.2-0.407-0.294-0.609c-0.22-0.474-0.391-0.932-0.576-1.438
		c-0.169-0.444-0.292-0.878-0.41-1.296l-0.019-0.067c-0.107-0.375-0.202-0.771-0.296-1.245c-0.164-0.801-0.235-1.469-0.266-1.888
		C4.402,32.959,4.41,32.68,4.41,32.668l0.019-0.593c-0.431-0.628-0.709-1.28-0.815-1.949c-0.168,0.797-0.262,1.61-0.262,2.438
		c0,2.747,0.964,5.345,2.68,7.66L6.298,39.97z"/>
	<path fill="#65BBA7" d="M42.587,47.071c0.105,0.053,0.204,0.102,0.293,0.152c0.211,0.109,0.38,0.201,0.498,0.266l3.213-2.151
		c0.009-0.007,0.018-0.014,0.027-0.021l-0.588-0.407l-1.058-0.866c-0.104-0.085-0.202-0.173-0.297-0.262
		c-0.218,0.209-0.438,0.418-0.662,0.625c-0.565,0.501-1.122,0.971-1.663,1.406c-0.279,0.227-0.562,0.44-0.834,0.64
		c0.212,0.124,0.417,0.248,0.606,0.363C42.286,46.918,42.439,46.996,42.587,47.071z"/>
	<path fill="#65BBA7" d="M50.402,37.154c0.085,0.074,0.17,0.148,0.252,0.225c0.065,0.059,0.146,0.125,0.227,0.191
		c0.103,0.085,0.205,0.17,0.303,0.258c0.195,0.148,0.382,0.3,0.563,0.45c0.072,0.055,0.15,0.112,0.229,0.172
		c0.081-0.172,0.171-0.354,0.261-0.533c0.126-0.252,0.25-0.501,0.36-0.75c0.336-0.725,0.665-1.473,1.041-2.361l0.27-0.655
		c-0.796,0.588-1.742,1.141-2.813,1.654c-0.067,0.124-0.327,0.589-0.774,1.277C50.346,37.106,50.375,37.13,50.402,37.154z"/>
	<path fill="#65BBA7" d="M34.135,40.797c0.207,0.192,0.419,0.374,0.634,0.558c0.173,0.147,0.348,0.298,0.518,0.451
		c0.044,0.039,0.087,0.078,0.13,0.116c0.23-0.208,0.457-0.415,0.668-0.627l2.189-2.123c-1.749,0.211-3.574,0.357-5.46,0.426
		L34.135,40.797z"/>
	<path fill="#65BBA7" d="M53.569,41.003l-0.186-0.019c-0.154,0.266-0.304,0.509-0.451,0.736
		C53.153,41.486,53.365,41.246,53.569,41.003z"/>
	<path fill="#65BBA7" d="M42.318,41.169c-0.074-0.102-0.146-0.201-0.22-0.299l-0.088-0.13c-0.255-0.386-0.496-0.749-0.688-1.121
		c-0.152-0.259-0.283-0.522-0.396-0.769c-0.248,0.369-0.543,0.787-0.887,1.241l-0.151,0.197c-0.253,0.33-0.539,0.706-0.862,1.079
		c-0.438,0.529-0.821,0.967-1.198,1.366c-0.201,0.223-0.415,0.447-0.624,0.662l0.504,0.408c0.188,0.134,0.395,0.295,0.6,0.454
		c0.199,0.156,0.397,0.311,0.6,0.454c0.198,0.132,0.401,0.277,0.601,0.421c0.231-0.184,0.466-0.379,0.711-0.582
		c0.166-0.138,0.334-0.277,0.504-0.415c0.462-0.385,0.965-0.826,1.53-1.343c0.266-0.236,0.525-0.474,0.781-0.711
		C42.762,41.782,42.537,41.47,42.318,41.169z"/>
</g>
<g>
	<path fill="#A9DBD1" d="M54.311,27.817c-4.172-2.363-13.39-4.008-24.099-4.008c-11.19,0-20.752,1.795-24.63,4.331
		c-1.189,0.777-1.851,1.625-1.851,2.512c0,0.141,0.021,0.279,0.054,0.417c0.834,3.586,12.344,6.427,26.427,6.427
		c13.635,0,24.859-2.664,26.316-6.087c0.105-0.248,0.164-0.501,0.164-0.757C56.692,29.641,55.835,28.681,54.311,27.817z"/>
</g>
<g>
	<path fill="#65BBA7" d="M23.062,24.345c-10.9,0.801-18.885,3.383-18.885,6.446c0,3.036,7.837,5.599,18.583,6.425
		C22.712,33.89,22.736,29.173,23.062,24.345z"/>
	<path fill="#65BBA7" d="M30.212,24.087c-1.013,0-2.01,0.017-2.993,0.046c-0.232,4.761-0.291,9.909-0.343,13.307
		c1.093,0.035,2.205,0.057,3.336,0.057c14.378,0,26.034-3.002,26.034-6.705S44.59,24.087,30.212,24.087z"/>
	<path fill="#3F8E79" d="M35.67,24.428c0-25.391-6.129-19.973-6.129-19.973c-0.114,0.041-0.225,0.089-0.335,0.141
		c-3.965,1.867-5.552,10.992-6.144,19.749c-0.326,4.828-0.35,9.545-0.302,12.871c1.33,0.102,2.705,0.177,4.115,0.224
		c0.052-3.397,0.111-8.546,0.343-13.307c0.253-5.179,0.713-9.899,1.596-11.402c0.143-0.244,0.272-0.561,0.391-0.86
		c0.113-0.283,0.216-0.551,0.31-0.724c0.814-1.496,1.011-1.381,1.514,2.014c0.506,3.415,0.415,10.944,0.415,10.944L35.67,24.428z"/>
</g>
</svg>
