<?xml version="1.0" encoding="utf-8"?>
<!-- Generator: Adobe Illustrator 16.0.0, SVG Export Plug-In . SVG Version: 6.00 Build 0)  -->
<!DOCTYPE svg PUBLIC "-//W3C//DTD SVG 1.1//EN" "http://www.w3.org/Graphics/SVG/1.1/DTD/svg11.dtd">
<svg version="1.1" id="Layer_1" xmlns="http://www.w3.org/2000/svg" xmlns:xlink="http://www.w3.org/1999/xlink" x="0px" y="0px"
	 width="178.6px" height="143.58px" viewBox="0 0 178.6 143.58" enable-background="new 0 0 178.6 143.58" xml:space="preserve">
<path fill="#65BBA7" d="M84.806,107.494c-34.123,0-62.011-10.133-64.034-22.92c-0.406,1.919-0.632,3.876-0.632,5.868
	c0,23.328,28.839,42.239,64.415,42.239s64.415-18.911,64.415-42.239c0-1.575-0.142-3.128-0.398-4.659
	C145.04,97.993,117.846,107.494,84.806,107.494z"/>
<path fill="#FFFFFF" stroke="#FFFFFF" stroke-width="3" stroke-miterlimit="10" d="M140.924,126.101
	c-0.419-0.168-0.848-0.376-1.285-0.618c-0.446-0.225-0.915-0.461-1.404-0.708c-0.967-0.505-2.057-0.979-3.109-1.62
	c-0.534-0.306-1.084-0.619-1.645-0.94c-0.553-0.33-1.159-0.612-1.7-0.992c-0.506-0.334-1.031-0.666-1.557-1.002
	c0.344-0.248,0.69-0.501,1.055-0.765c0.423-0.357,0.861-0.726,1.312-1.104c0.424-0.402,0.859-0.813,1.304-1.231
	c0.425-0.432,0.84-0.888,1.254-1.353c0.803-0.946,1.632-1.928,2.347-2.983c0.743-1.044,1.414-2.139,2.042-3.246
	c0.083-0.151,0.157-0.306,0.238-0.458c0.577,0.103,0.919,0.138,0.919,0.138s-0.244-0.23-0.688-0.578
	c0.428-0.823,0.837-1.649,1.222-2.47c0.518-1.121,0.937-2.252,1.335-3.342c0.414-1.087,0.711-2.162,0.999-3.177
	c0.291-1.015,0.505-1.984,0.684-2.881c0.367-1.793,0.538-3.303,0.616-4.362c0.079-1.06,0.061-1.668,0.061-1.668
	s-0.936,2.272-2.339,5.681c-0.714,1.688-1.56,3.642-2.517,5.71c-0.461,1.04-1.021,2.084-1.531,3.162
	c-0.268,0.533-0.542,1.067-0.826,1.601c-0.24-0.173-0.486-0.349-0.728-0.549c-0.409-0.329-0.848-0.659-1.302-0.997
	c-0.43-0.361-0.879-0.724-1.347-1.079c-0.428-0.391-0.901-0.751-1.34-1.14c-0.426-0.398-0.895-0.768-1.299-1.169
	c-0.146-0.138-0.292-0.273-0.438-0.41c1.68-2.479,2.538-4.091,2.538-4.091s-1.254,1.277-3.297,3.36
	c-0.008-0.009-0.018-0.018-0.025-0.025c-0.792-0.763-1.492-1.512-2.104-2.165c-0.619-0.653-1.106-1.227-1.471-1.633
	c-0.355-0.419-0.559-0.657-0.559-0.657s-0.044,0.299-0.001,0.82c0.033,0.255,0.051,0.579,0.146,0.929
	c0.074,0.356,0.182,0.754,0.337,1.181c0.313,0.85,0.787,1.821,1.475,2.778c0.131,0.195,0.28,0.388,0.431,0.58
	c-0.256,0.26-0.517,0.525-0.786,0.801c-0.878,0.888-1.828,1.85-2.834,2.867c-1.014,1.007-2.083,2.07-3.189,3.169
	c-0.752,0.749-1.544,1.506-2.343,2.269c-0.185-0.182-0.374-0.366-0.557-0.546c-0.473-0.437-0.871-0.906-1.297-1.346
	c-0.417-0.445-0.842-0.873-1.229-1.306c-0.728-0.889-1.5-1.69-2.108-2.487c-1.286-1.561-2.252-2.929-2.934-3.893
	c-0.095-0.141-0.17-0.253-0.253-0.376c0.226-0.396,0.342-0.62,0.342-0.62s-0.16,0.161-0.452,0.454
	c-0.156-0.234-0.294-0.44-0.396-0.594c-0.172-0.267-0.263-0.409-0.263-0.409s0.08,0.482,0.341,1.32
	c-0.937,0.938-2.669,2.673-4.892,4.898c-0.854,0.838-1.781,1.747-2.761,2.706c-0.989,0.951-2.032,1.95-3.11,2.988
	c-0.822,0.824-1.738,1.618-2.635,2.446c-0.461-0.38-0.917-0.764-1.349-1.162c-0.931-0.836-1.905-1.618-2.775-2.431
	c-1.78-1.606-3.442-3.107-4.867-4.392c-1.425-1.306-2.611-2.393-3.442-3.153c-0.025-0.023-0.044-0.04-0.069-0.063
	c0.429-0.717,0.633-1.137,0.633-1.137s-0.349,0.314-0.946,0.854c-0.597-0.54-0.945-0.854-0.945-0.854s0.205,0.42,0.633,1.137
	c-0.025,0.022-0.043,0.039-0.069,0.063c-0.831,0.761-2.018,1.848-3.442,3.153c-1.425,1.284-3.087,2.785-4.867,4.392
	c-0.87,0.813-1.845,1.595-2.775,2.431c-0.432,0.398-0.888,0.781-1.348,1.162c-0.896-0.828-1.813-1.622-2.635-2.446
	c-1.079-1.038-2.122-2.037-3.11-2.988c-0.98-0.959-1.906-1.868-2.762-2.706c-2.222-2.225-3.954-3.96-4.891-4.896
	c0.261-0.839,0.341-1.322,0.341-1.322s-0.091,0.143-0.263,0.409c-0.103,0.153-0.24,0.36-0.396,0.594
	c-0.293-0.293-0.453-0.454-0.453-0.454s0.116,0.225,0.342,0.621c-0.082,0.122-0.157,0.234-0.252,0.375
	c-0.682,0.964-1.647,2.332-2.934,3.893c-0.608,0.797-1.381,1.599-2.108,2.487c-0.387,0.433-0.812,0.86-1.229,1.306
	c-0.426,0.439-0.824,0.909-1.297,1.346c-0.183,0.18-0.372,0.364-0.557,0.546c-0.799-0.763-1.591-1.52-2.343-2.269
	c-1.106-1.099-2.176-2.162-3.189-3.169c-1.006-1.018-1.956-1.979-2.834-2.867c-0.271-0.275-0.53-0.541-0.786-0.802
	c0.15-0.191,0.299-0.384,0.43-0.579c0.688-0.957,1.162-1.929,1.475-2.778c0.155-0.427,0.263-0.824,0.337-1.181
	c0.095-0.35,0.112-0.674,0.146-0.929c0.043-0.521-0.001-0.82-0.001-0.82s-0.203,0.238-0.559,0.657
	c-0.364,0.406-0.851,0.979-1.471,1.633c-0.612,0.653-1.313,1.402-2.104,2.165c-0.008,0.008-0.017,0.017-0.024,0.025
	c-2.043-2.083-3.297-3.36-3.297-3.36s0.858,1.611,2.538,4.091c-0.146,0.136-0.292,0.272-0.438,0.41
	c-0.404,0.401-0.873,0.771-1.299,1.169c-0.438,0.389-0.912,0.749-1.34,1.14c-0.468,0.355-0.917,0.718-1.347,1.079
	c-0.454,0.338-0.893,0.668-1.302,0.997c-0.241,0.2-0.487,0.376-0.728,0.549c-0.283-0.533-0.558-1.067-0.825-1.601
	c-0.511-1.077-1.071-2.122-1.531-3.162c-0.957-2.068-1.803-4.022-2.517-5.71c-1.403-3.408-2.339-5.681-2.339-5.681
	s-0.019,0.608,0.061,1.668c0.078,1.06,0.249,2.569,0.616,4.362c0.178,0.896,0.393,1.866,0.684,2.881
	c0.287,1.015,0.585,2.09,0.999,3.177c0.398,1.091,0.816,2.222,1.335,3.342c0.384,0.82,0.793,1.646,1.221,2.469
	c-0.443,0.349-0.688,0.579-0.688,0.579s0.342-0.035,0.92-0.138c0.081,0.152,0.155,0.307,0.238,0.458
	c0.628,1.107,1.299,2.202,2.041,3.246c0.716,1.056,1.545,2.038,2.348,2.983c0.414,0.465,0.829,0.921,1.254,1.353
	c0.444,0.419,0.88,0.829,1.304,1.231c0.45,0.378,0.888,0.746,1.312,1.104c0.364,0.263,0.711,0.516,1.055,0.764
	c-0.525,0.336-1.051,0.668-1.557,1.002c-0.541,0.38-1.147,0.662-1.7,0.992c-0.561,0.321-1.11,0.635-1.645,0.94
	c-1.053,0.641-2.143,1.115-3.109,1.62c-0.489,0.247-0.958,0.483-1.404,0.708c-0.438,0.242-0.866,0.45-1.285,0.618
	c-0.829,0.35-1.544,0.683-2.138,0.95c-1.187,0.542-1.86,0.881-1.86,0.881s0.758-0.135,2.077-0.421
	c0.659-0.145,1.465-0.315,2.38-0.541c0.936-0.188,1.905-0.568,3.002-0.923c1.083-0.376,2.304-0.725,3.467-1.294
	c1.178-0.545,2.489-1.039,3.709-1.73c0.613-0.343,1.237-0.69,1.869-1.042c0.181-0.102,0.363-0.205,0.546-0.307
	c0.129,0.068,0.263,0.152,0.389,0.215c0.743,0.426,1.483,0.688,2.048,0.938c0.579,0.236,1.071,0.36,1.386,0.472
	c0.321,0.102,0.493,0.153,0.493,0.153s-0.565-0.379-1.556-1.039c-0.465-0.359-1.057-0.751-1.661-1.27
	c-0.03-0.024-0.063-0.055-0.094-0.079c0.105-0.071,0.219-0.132,0.32-0.205c0.601-0.411,1.206-0.823,1.814-1.237l0.906-0.63
	l0.852-0.682l1.675-1.388c0.563-0.454,1.047-0.969,1.568-1.446c0.039-0.034,0.073-0.071,0.112-0.105
	c0.853,0.831,1.72,1.66,2.605,2.482c1.282,1.136,2.595,2.248,3.924,3.315c1.229,0.998,2.511,1.915,3.777,2.79
	c-0.361,0.241-0.718,0.479-1.062,0.699c-0.86,0.486-1.638,0.957-2.331,1.378c-0.685,0.435-1.348,0.712-1.861,1.003
	c-1.048,0.547-1.646,0.893-1.646,0.893s0.689-0.142,1.896-0.446c0.591-0.17,1.367-0.295,2.153-0.612
	c0.805-0.288,1.717-0.617,2.7-1.005c0.572-0.248,1.171-0.528,1.782-0.82c0.916,0.592,1.833,1.155,2.739,1.661
	c1.33,0.771,2.652,1.432,3.91,1.981c0.619,0.286,1.221,0.548,1.817,0.764c0.591,0.222,1.141,0.442,1.688,0.604
	c0.541,0.169,1.036,0.343,1.51,0.472c0.479,0.116,0.918,0.223,1.315,0.318c0.779,0.216,1.441,0.256,1.865,0.34
	c0.183,0.028,0.321,0.05,0.43,0.066c-0.176,0.117-0.366,0.243-0.534,0.355c-0.852,0.547-1.639,0.967-2.264,1.352
	c-1.262,0.753-1.979,1.208-1.979,1.208s0.829-0.267,2.273-0.777c0.711-0.271,1.62-0.547,2.58-0.979
	c0.959-0.434,2.044-0.924,3.213-1.488c1.179-0.553,2.36-1.264,3.642-1.984c0.311-0.167,0.616-0.345,0.922-0.528
	c0.306,0.184,0.611,0.361,0.922,0.528c1.281,0.721,2.463,1.432,3.642,1.984c1.168,0.564,2.254,1.055,3.213,1.488
	c0.96,0.433,1.869,0.708,2.58,0.979c1.444,0.511,2.273,0.777,2.273,0.777s-0.718-0.455-1.979-1.208
	c-0.625-0.385-1.412-0.805-2.264-1.352c-0.168-0.112-0.358-0.238-0.534-0.355c0.108-0.017,0.247-0.038,0.43-0.066
	c0.424-0.084,1.086-0.124,1.865-0.34c0.397-0.096,0.837-0.202,1.315-0.318c0.474-0.129,0.969-0.303,1.51-0.472
	c0.547-0.161,1.097-0.382,1.688-0.604c0.597-0.216,1.198-0.478,1.817-0.764c1.258-0.55,2.58-1.21,3.91-1.981
	c0.906-0.506,1.823-1.069,2.738-1.661c0.611,0.292,1.21,0.572,1.782,0.82c0.983,0.388,1.896,0.717,2.7,1.005
	c0.786,0.317,1.563,0.442,2.153,0.612c1.206,0.305,1.896,0.446,1.896,0.446s-0.599-0.346-1.646-0.893
	c-0.514-0.291-1.177-0.568-1.861-1.003c-0.693-0.421-1.471-0.892-2.331-1.378c-0.344-0.22-0.7-0.458-1.062-0.698
	c1.268-0.876,2.549-1.792,3.778-2.791c1.329-1.067,2.642-2.18,3.924-3.315c0.886-0.822,1.753-1.651,2.605-2.482
	c0.039,0.034,0.073,0.071,0.112,0.105c0.521,0.478,1.005,0.992,1.568,1.446l1.675,1.388l0.852,0.682l0.906,0.63
	c0.608,0.414,1.214,0.826,1.814,1.237c0.102,0.073,0.215,0.134,0.32,0.205c-0.031,0.024-0.063,0.055-0.094,0.079
	c-0.604,0.519-1.196,0.91-1.661,1.27c-0.99,0.66-1.556,1.039-1.556,1.039s0.172-0.052,0.493-0.153
	c0.314-0.111,0.807-0.236,1.386-0.472c0.564-0.251,1.305-0.513,2.048-0.938c0.126-0.063,0.26-0.146,0.389-0.215
	c0.183,0.102,0.365,0.205,0.546,0.307c0.632,0.352,1.256,0.699,1.869,1.042c1.22,0.691,2.531,1.186,3.709,1.73
	c1.163,0.569,2.384,0.918,3.467,1.294c1.097,0.354,2.066,0.735,3.002,0.923c0.915,0.226,1.721,0.396,2.38,0.541
	c1.319,0.286,2.077,0.421,2.077,0.421s-0.674-0.339-1.86-0.881C142.468,126.783,141.753,126.45,140.924,126.101z M77.866,112.791
	c0.854-0.857,1.597-1.74,2.31-2.568c0.729-0.817,1.337-1.643,1.922-2.385c1.077-1.419,1.896-2.643,2.456-3.558
	c0.562,0.915,1.381,2.139,2.457,3.558c0.585,0.742,1.192,1.567,1.922,2.385c0.713,0.828,1.455,1.711,2.31,2.568
	c0.829,0.873,1.7,1.77,2.647,2.637c0.479,0.462,0.987,0.91,1.503,1.356c-0.77,0.688-1.547,1.375-2.329,2.062
	c-1.229,1.033-2.406,2.115-3.654,3.1c-1.273,0.959-2.396,2.029-3.645,2.909c-0.407,0.31-0.812,0.611-1.21,0.913
	c-0.398-0.302-0.803-0.604-1.21-0.913c-1.25-0.88-2.372-1.95-3.646-2.909c-1.247-0.985-2.425-2.066-3.653-3.1
	c-0.782-0.687-1.56-1.373-2.329-2.063c0.515-0.445,1.023-0.894,1.502-1.355C76.166,114.561,77.038,113.664,77.866,112.791z
	 M45.692,115.23l-1.625,1.284l-0.8,0.655l-0.853,0.604c-0.563,0.407-1.124,0.811-1.681,1.214c-0.154,0.109-0.314,0.207-0.471,0.314
	c-0.307-0.313-0.622-0.633-0.95-0.968c-0.344-0.374-0.698-0.762-1.063-1.16c-0.341-0.412-0.69-0.835-1.048-1.271
	c-0.325-0.453-0.703-0.887-1.045-1.353c-0.691-0.93-1.343-1.92-1.997-2.933c-0.647-1.016-1.28-2.062-1.868-3.126
	c-0.03-0.052-0.057-0.103-0.087-0.155c0.394-0.133,0.805-0.271,1.211-0.461c0.533-0.245,1.099-0.507,1.664-0.805
	c0.543-0.321,1.105-0.657,1.654-1.024c0.525-0.388,1.056-0.788,1.557-1.214c0.374-0.362,0.764-0.712,1.114-1.084
	c0.12,0.163,0.239,0.327,0.365,0.495c0.729,0.99,1.539,2.053,2.442,3.15c0.9,1.1,1.853,2.261,2.911,3.416
	c0.808,0.885,1.642,1.797,2.513,2.699c-0.14,0.124-0.282,0.245-0.417,0.373C46.711,114.327,46.241,114.809,45.692,115.23z
	 M54.308,116.181c-1.006-0.899-1.994-1.809-2.96-2.724c0.284-0.319,0.564-0.64,0.842-0.952c0.893-0.974,1.588-2.016,2.299-2.964
	c0.649-0.982,1.271-1.904,1.735-2.802c0.515-0.876,0.897-1.712,1.228-2.452c0.338-0.738,0.566-1.402,0.758-1.943
	c0.004-0.013,0.007-0.023,0.011-0.034c0.676,1.143,1.88,3.053,3.622,5.35c0.719,0.936,1.482,1.963,2.38,2.997
	c0.866,1.051,1.805,2.147,2.84,3.242c0.828,0.914,1.727,1.828,2.646,2.747c-0.839,0.679-1.678,1.356-2.504,2.024
	c-1.029,0.741-1.975,1.542-2.961,2.244c-0.827,0.551-1.589,1.125-2.351,1.657c-0.021-0.017-0.041-0.031-0.062-0.046
	c-1.267-0.953-2.49-2.014-3.773-3.058C56.789,118.411,55.538,117.304,54.308,116.181z M82.249,127.483
	c-0.574,0.405-1.133,0.798-1.674,1.179c-0.536,0.387-1.042,0.776-1.574,1.096c-0.819,0.517-1.557,1.004-2.25,1.463
	c-0.103-0.038-0.244-0.091-0.432-0.163c-0.394-0.161-0.988-0.345-1.698-0.671c-0.355-0.156-0.75-0.328-1.179-0.515
	c-0.416-0.206-0.866-0.427-1.347-0.663c-0.485-0.224-0.972-0.511-1.49-0.798c-0.522-0.281-1.065-0.585-1.612-0.928
	c-0.557-0.327-1.128-0.677-1.698-1.069c-0.58-0.374-1.184-0.755-1.777-1.182c-0.605-0.41-1.215-0.845-1.82-1.308
	c-0.01-0.008-0.021-0.016-0.03-0.023c0.737-0.407,1.479-0.838,2.242-1.292c1.078-0.677,2.163-1.404,3.253-2.161
	c0.836-0.626,1.67-1.276,2.495-1.934c0.731,0.68,1.469,1.358,2.212,2.036c1.28,1.045,2.515,2.125,3.818,3.117
	c0.647,0.501,1.301,0.987,1.954,1.46c0.641,0.483,1.297,0.94,1.964,1.369c0.355,0.234,0.706,0.469,1.053,0.699
	C82.521,127.292,82.386,127.392,82.249,127.483z M103.592,125.232c-0.594,0.427-1.197,0.808-1.777,1.182
	c-0.57,0.393-1.142,0.742-1.698,1.069c-0.547,0.343-1.09,0.646-1.612,0.928c-0.519,0.287-1.005,0.574-1.49,0.798
	c-0.48,0.236-0.931,0.457-1.347,0.663c-0.429,0.187-0.823,0.358-1.179,0.515c-0.71,0.326-1.305,0.51-1.698,0.671
	c-0.188,0.072-0.329,0.125-0.432,0.163c-0.693-0.459-1.432-0.946-2.251-1.463c-0.531-0.32-1.037-0.709-1.573-1.096
	c-0.541-0.381-1.1-0.774-1.674-1.179c-0.137-0.092-0.272-0.191-0.409-0.288c0.347-0.229,0.696-0.464,1.053-0.697
	c0.667-0.43,1.323-0.887,1.964-1.37c0.653-0.473,1.307-0.959,1.954-1.46c1.304-0.992,2.537-2.072,3.818-3.117
	c0.743-0.678,1.48-1.356,2.211-2.036c0.826,0.657,1.659,1.308,2.495,1.934c1.09,0.757,2.175,1.484,3.253,2.161
	c0.764,0.454,1.505,0.885,2.243,1.292c-0.01,0.008-0.021,0.016-0.03,0.023C104.807,124.388,104.197,124.822,103.592,125.232z
	 M114.802,116.181c-1.23,1.123-2.481,2.23-3.75,3.287c-1.283,1.044-2.507,2.104-3.773,3.058c-0.021,0.015-0.042,0.03-0.063,0.046
	c-0.762-0.532-1.523-1.105-2.351-1.657c-0.986-0.702-1.932-1.503-2.961-2.244c-0.825-0.668-1.665-1.346-2.503-2.023
	c0.92-0.919,1.818-1.834,2.646-2.748c1.035-1.095,1.974-2.191,2.841-3.242c0.896-1.034,1.66-2.062,2.379-2.997
	c1.743-2.297,2.947-4.207,3.622-5.35c0.005,0.011,0.008,0.021,0.012,0.034c0.191,0.541,0.42,1.205,0.758,1.943
	c0.33,0.74,0.713,1.576,1.228,2.452c0.464,0.897,1.086,1.819,1.735,2.802c0.711,0.948,1.406,1.99,2.299,2.964
	c0.277,0.313,0.558,0.633,0.842,0.952C116.796,114.372,115.808,115.281,114.802,116.181z M125.842,117.17l-0.8-0.655l-1.625-1.284
	c-0.549-0.422-1.019-0.903-1.527-1.347c-0.135-0.128-0.277-0.249-0.417-0.373c0.871-0.902,1.705-1.814,2.513-2.699
	c1.059-1.155,2.011-2.316,2.911-3.416c0.903-1.098,1.714-2.16,2.442-3.15c0.125-0.168,0.244-0.331,0.365-0.495
	c0.351,0.372,0.739,0.723,1.113,1.084c0.501,0.426,1.031,0.826,1.557,1.214c0.549,0.367,1.111,0.703,1.654,1.024
	c0.565,0.298,1.131,0.56,1.664,0.805c0.406,0.19,0.817,0.329,1.211,0.461c-0.029,0.053-0.056,0.104-0.086,0.155
	c-0.588,1.064-1.222,2.11-1.868,3.126c-0.654,1.012-1.306,2.003-1.997,2.933c-0.342,0.466-0.72,0.899-1.045,1.353
	c-0.357,0.436-0.708,0.857-1.049,1.271c-0.364,0.398-0.719,0.786-1.063,1.16c-0.328,0.335-0.644,0.655-0.95,0.968
	c-0.156-0.107-0.316-0.205-0.471-0.314c-0.557-0.403-1.117-0.807-1.681-1.214L125.842,117.17z"/>
<g>
	<path fill="#A9DBD1" d="M142.822,69.938c-10.043-7.907-32.234-13.407-58.018-13.407c-26.94,0-49.961,6.004-59.295,14.486
		c-2.864,2.603-4.455,5.437-4.455,8.405c0,0.469,0.052,0.933,0.129,1.396c2.009,11.992,29.719,21.496,63.621,21.496
		c32.826,0,59.847-8.91,63.354-20.362c0.254-0.831,0.396-1.674,0.396-2.529C148.555,76.039,146.493,72.83,142.822,69.938z"/>
</g>
<ellipse fill="#3F8E79" cx="84.805" cy="79.591" rx="63.75" ry="22.726"/>
<path fill="#65BBA7" d="M92.942,58.649c0-47.291-8.833-50.189-12.831-49.078c-1.17,0.325-2.649,1.293-2.734,1.333v17.307
	c0.271-0.682,0.519-1.119,0.746-1.536c1.96-3.602,2.434-3.323,3.645,4.849c1.218,8.221,1,26.348,1,26.348L92.942,58.649z"/>
<ellipse transform="matrix(0.171 0.9853 -0.9853 0.171 105.1916 -8.9659)" fill="#583F16" cx="57.924" cy="58.028" rx="19.154" ry="18.017"/>
<g>
	
		<ellipse transform="matrix(0.1988 -0.98 0.98 0.1988 -0.9462 107.3768)" fill="#DDBC83" cx="65.2" cy="54.267" rx="3.852" ry="3.624"/>
	
		<ellipse transform="matrix(0.1988 -0.98 0.98 0.1988 -12.0233 109.7882)" fill="#DDBC83" cx="61.135" cy="62.248" rx="2.496" ry="2.347"/>
	
		<ellipse transform="matrix(0.199 -0.98 0.98 0.199 -24.5139 98.5959)" fill="#DDBC83" cx="48.059" cy="64.294" rx="1.79" ry="1.683"/>
	
		<ellipse transform="matrix(0.198 -0.9802 0.9802 0.198 -28.0383 91.9236)" fill="#DDBC83" cx="42.156" cy="63.096" rx="1.113" ry="1.047"/>
	
		<ellipse transform="matrix(0.1989 -0.98 0.98 0.1989 2.2337 94.2361)" fill="#DDBC83" cx="58.76" cy="45.752" rx="1.789" ry="1.684"/>
	
		<ellipse transform="matrix(0.1987 -0.9801 0.9801 0.1987 -12.3034 89.5155)" fill="#DDBC83" cx="48.591" cy="52.282" rx="2.496" ry="2.349"/>
	
		<ellipse transform="matrix(0.1988 -0.98 0.98 0.1988 -23.1384 114.8652)" fill="#DDBC83" cx="58.686" cy="71.585" rx="3.142" ry="2.955"/>
	
		<ellipse transform="matrix(0.1993 -0.9799 0.9799 0.1993 -2.0383 116.7398)" fill="#DDBC83" cx="70.415" cy="59.617" rx="1.114" ry="1.047"/>
</g>
<ellipse fill="#CEA05D" cx="34.321" cy="67.924" rx="17.692" ry="16.643"/>
<g>
	<ellipse fill="#583F16" cx="28.187" cy="59.894" rx="3.853" ry="3.624"/>
	<ellipse fill="#583F16" cx="36.816" cy="62.29" rx="2.496" ry="2.348"/>
	<ellipse fill="#583F16" cx="41.423" cy="74.697" rx="1.79" ry="1.684"/>
	<ellipse fill="#583F16" cx="41.423" cy="80.722" rx="1.114" ry="1.048"/>
	<ellipse fill="#583F16" cx="21.122" cy="67.898" rx="1.79" ry="1.684"/>
	<ellipse fill="#583F16" cx="29.544" cy="76.566" rx="2.496" ry="2.348"/>
	<ellipse fill="#583F16" cx="46.454" cy="62.833" rx="3.142" ry="2.956"/>
	<ellipse fill="#583F16" cx="32.393" cy="53.718" rx="1.114" ry="1.048"/>
</g>
<ellipse fill="#DDBC83" cx="49.409" cy="80.735" rx="17.692" ry="16.643"/>
<g>
	
		<ellipse transform="matrix(0.9316 0.3634 -0.3634 0.9316 36.7895 -12.8678)" fill="#FFFFFF" cx="52.594" cy="91.342" rx="3.852" ry="3.624"/>
	
		<ellipse transform="matrix(0.9316 0.3635 -0.3635 0.9316 34.3568 -10.6311)" fill="#FFFFFF" cx="45.426" cy="85.973" rx="2.496" ry="2.348"/>
	
		<ellipse transform="matrix(0.9315 0.3637 -0.3637 0.9315 29.5823 -11.6196)" fill="#FFFFFF" cx="45.645" cy="72.74" rx="1.79" ry="1.683"/>
	
		<ellipse transform="matrix(0.9318 0.3631 -0.3631 0.9318 27.6354 -12.7864)" fill="#FFFFFF" cx="47.834" cy="67.128" rx="1.114" ry="1.048"/>
	
		<ellipse transform="matrix(0.9316 0.3635 -0.3635 0.9316 35.6697 -16.6532)" fill="#FFFFFF" cx="62.085" cy="86.453" rx="1.789" ry="1.684"/>
	
		<ellipse transform="matrix(0.9317 0.3633 -0.3633 0.9317 31.2854 -15.7038)" fill="#FFFFFF" cx="57.39" cy="75.317" rx="2.496" ry="2.349"/>
	
		<ellipse transform="matrix(0.9316 0.3635 -0.3635 0.9316 32.2979 -7.7136)" fill="#FFFFFF" cx="36.645" cy="81.963" rx="3.142" ry="2.955"/>
	
		<ellipse transform="matrix(0.9314 0.364 -0.364 0.9314 37.9679 -10.3445)" fill="#FFFFFF" cx="46.431" cy="95.566" rx="1.113" ry="1.047"/>
</g>
<path fill="#CEA05D" d="M101.257,95.998c8.581,5.152,21.783-5.642,29.487-24.109c7.706-18.467,6.997-37.613-1.583-42.766
	c-8.581-5.152-21.782,5.642-29.487,24.109C91.969,71.699,92.677,90.846,101.257,95.998z"/>
<g>
	<path fill="#FFFFFF" d="M100.315,72.546c0,0,0.21-0.104,0.58-0.255c0.184-0.072,0.407-0.158,0.664-0.258
		c0.244-0.113,0.514-0.24,0.806-0.352c0.299-0.126,0.622-0.262,0.965-0.406c0.343-0.135,0.72-0.279,1.113-0.414
		c0.386-0.141,0.809-0.264,1.244-0.373c0.426-0.127,0.892-0.195,1.358-0.262c0.458-0.081,0.952-0.074,1.43-0.062
		c0.473-0.026,0.956,0.118,1.406,0.209l0.334,0.079l0.147,0.039l0.069,0.03l0.135,0.065c0.18,0.086,0.354,0.171,0.525,0.253
		c0.343,0.17,0.692,0.439,0.981,0.639c0.294,0.204,0.505,0.407,0.716,0.591c0.203,0.181,0.38,0.339,0.525,0.469
		c0.29,0.268,0.455,0.44,0.455,0.44s-0.229-0.017-0.628-0.082c-0.197-0.035-0.448-0.073-0.707-0.149
		c-0.261-0.063-0.573-0.156-0.868-0.238c-0.31-0.065-0.575-0.164-0.942-0.237c-0.186-0.037-0.376-0.076-0.57-0.115l-0.146-0.03
		l-0.073-0.018c0.028,0.009-0.07-0.02,0.062,0.019h-0.004l-0.008-0.001h-0.018l-0.033-0.001l-0.269-0.007
		c-0.363-0.001-0.713-0.069-1.104-0.015c-0.383,0.034-0.765,0.021-1.169,0.105c-0.796,0.087-1.621,0.249-2.428,0.369
		c-0.402,0.063-0.793,0.113-1.181,0.153c-0.389,0.038-0.733,0.07-1.097,0.07c-0.71,0.027-1.269-0.027-1.656-0.118
		C100.541,72.607,100.315,72.546,100.315,72.546z"/>
</g>
<g>
	<path fill="#FFFFFF" d="M100.215,65.313c0,0,0.225,0.095,0.597,0.285c0.365,0.207,0.902,0.439,1.455,0.914
		c0.283,0.224,0.595,0.47,0.91,0.749c0.305,0.283,0.591,0.6,0.894,0.932c0.624,0.649,1.142,1.447,1.671,2.236
		c0.232,0.413,0.468,0.825,0.681,1.24c0.229,0.405,0.392,0.838,0.562,1.248c0.347,0.815,0.57,1.619,0.724,2.314
		c0.186,0.684,0.212,1.296,0.258,1.708c0.031,0.419,0.03,0.66,0.03,0.66s-0.159-0.189-0.405-0.526
		c-0.255-0.333-0.55-0.829-0.943-1.399c-0.192-0.286-0.397-0.596-0.597-0.929c-0.194-0.336-0.438-0.67-0.651-1.031
		c-0.224-0.357-0.432-0.737-0.673-1.104c-0.239-0.369-0.463-0.754-0.689-1.138c-0.938-1.512-1.878-3.022-2.582-4.156
		c-0.177-0.286-0.332-0.567-0.505-0.8c-0.166-0.233-0.296-0.452-0.406-0.629C100.326,65.531,100.215,65.313,100.215,65.313z"/>
</g>
<g>
	<path fill="#FFFFFF" d="M105.694,50.227c0,0,0.239,0.007,0.646,0.05c0.202,0.024,0.449,0.048,0.724,0.098
		c0.278,0.032,0.588,0.102,0.923,0.23c0.338,0.11,0.709,0.234,1.096,0.389c0.383,0.157,0.743,0.369,1.133,0.58
		c0.391,0.21,0.782,0.444,1.143,0.73c0.37,0.273,0.747,0.556,1.101,0.859c0.337,0.321,0.676,0.642,0.994,0.971
		c0.335,0.314,0.596,0.684,0.872,1.019c0.554,0.67,0.972,1.367,1.309,1.975c0.353,0.595,0.554,1.152,0.708,1.528
		c0.146,0.384,0.212,0.611,0.212,0.611s-0.204-0.13-0.531-0.374c-0.331-0.239-0.76-0.613-1.28-1.042
		c-0.261-0.214-0.54-0.446-0.819-0.702c-0.272-0.264-0.591-0.508-0.893-0.784c-0.312-0.267-0.603-0.573-0.933-0.842
		c-0.326-0.274-0.642-0.567-0.96-0.858c-0.325-0.279-0.65-0.559-0.971-0.834c-0.312-0.29-0.634-0.548-0.949-0.797
		c-0.315-0.246-0.606-0.526-0.895-0.747c-0.291-0.213-0.561-0.436-0.814-0.645c-0.249-0.208-0.493-0.408-0.731-0.562
		c-0.23-0.157-0.425-0.313-0.586-0.438C105.87,50.389,105.694,50.227,105.694,50.227z"/>
</g>
<g>
	<path fill="#FFFFFF" d="M116.896,52.235c0,0-0.175,0.162-0.493,0.415c-0.306,0.262-0.809,0.57-1.326,0.981
		c-0.265,0.2-0.548,0.415-0.854,0.621c-0.306,0.218-0.629,0.447-0.963,0.685c-0.681,0.45-1.396,0.963-2.14,1.421
		c-1.477,0.953-3.029,1.827-4.29,2.36c-1.245,0.554-2.176,0.76-2.176,0.76s0.563-0.77,1.532-1.711
		c0.951-0.969,2.339-2.111,3.855-3.094c0.776-0.472,1.556-0.933,2.348-1.276c0.766-0.367,1.553-0.632,2.228-0.813
		c0.664-0.218,1.233-0.24,1.637-0.302C116.659,52.242,116.896,52.235,116.896,52.235z"/>
</g>
<g>
	<path fill="#FFFFFF" d="M114.027,35.029c0,0,0.187,0.06,0.489,0.188c0.3,0.142,0.73,0.295,1.18,0.645
		c0.478,0.316,0.996,0.746,1.459,1.256c0.5,0.492,0.911,1.109,1.326,1.723c0.178,0.325,0.359,0.647,0.519,0.976
		c0.175,0.318,0.292,0.662,0.41,0.988c0.248,0.648,0.382,1.293,0.45,1.851c0.105,0.544,0.056,1.037,0.049,1.362
		c-0.021,0.331-0.053,0.52-0.053,0.52s-0.133-0.15-0.33-0.412c-0.207-0.259-0.429-0.64-0.743-1.072
		c-0.309-0.434-0.615-0.945-0.972-1.479c-0.319-0.55-0.71-1.104-1.037-1.691c-0.177-0.286-0.363-0.566-0.526-0.856
		c-0.162-0.292-0.336-0.567-0.501-0.839c-0.318-0.563-0.617-1.061-0.863-1.521c-0.231-0.465-0.499-0.864-0.637-1.159
		C114.1,35.211,114.027,35.029,114.027,35.029z"/>
</g>
<g>
	<path fill="#FFFFFF" d="M123.229,38.208c0,0-0.208,0.079-0.572,0.186c-0.356,0.117-0.897,0.209-1.488,0.371
		c-0.297,0.08-0.612,0.167-0.943,0.235c-0.33,0.057-0.682,0.18-1.042,0.26c-0.36,0.097-0.737,0.152-1.107,0.271
		c-0.373,0.108-0.754,0.198-1.135,0.29c-0.377,0.106-0.75,0.229-1.126,0.322c-0.378,0.089-0.737,0.215-1.094,0.32
		c-0.353,0.115-0.715,0.182-1.038,0.3c-0.326,0.109-0.646,0.197-0.943,0.277c-0.6,0.155-1.086,0.334-1.458,0.413
		c-0.367,0.089-0.591,0.126-0.591,0.126s0.129-0.177,0.38-0.464c0.259-0.272,0.61-0.71,1.13-1.089
		c0.255-0.199,0.534-0.415,0.841-0.626c0.303-0.221,0.656-0.387,1.013-0.581c0.361-0.186,0.733-0.386,1.141-0.516
		c0.399-0.148,0.812-0.286,1.226-0.414c0.425-0.092,0.849-0.186,1.27-0.258c0.416-0.093,0.841-0.096,1.245-0.123
		c0.407-0.015,0.792-0.046,1.174-0.004c0.377,0.027,0.731,0.073,1.054,0.117c0.645,0.073,1.138,0.27,1.503,0.376
		C123.023,38.12,123.229,38.208,123.229,38.208z"/>
</g>
<path fill="#DDBC83" d="M109.174,99.083c6.309,7.771,22.401,2.128,35.943-12.604c13.544-14.73,19.408-32.97,13.101-40.74
	c-6.309-7.77-22.4-2.127-35.943,12.604C108.731,73.073,102.866,91.313,109.174,99.083z"/>
<g>
	<path fill="#FFFFFF" d="M116.29,76.717c0,0,0.232-0.027,0.631-0.043c0.198-0.004,0.438-0.009,0.713-0.016
		c0.269-0.021,0.564-0.049,0.877-0.055c0.324-0.017,0.675-0.034,1.046-0.053c0.368-0.01,0.772-0.017,1.188-0.01
		c0.411,0,0.85,0.027,1.298,0.074c0.442,0.025,0.904,0.12,1.365,0.217c0.458,0.08,0.921,0.255,1.365,0.43
		c0.453,0.137,0.857,0.438,1.25,0.677l0.287,0.188l0.125,0.087l0.055,0.052l0.105,0.107c0.139,0.143,0.274,0.281,0.406,0.417
		c0.266,0.276,0.502,0.649,0.705,0.935c0.207,0.293,0.336,0.556,0.473,0.8c0.129,0.239,0.24,0.448,0.334,0.62
		c0.18,0.35,0.277,0.568,0.277,0.568s-0.209-0.093-0.563-0.291c-0.174-0.1-0.396-0.222-0.613-0.381
		c-0.225-0.147-0.486-0.342-0.736-0.52c-0.268-0.168-0.484-0.352-0.805-0.545c-0.161-0.099-0.327-0.199-0.496-0.303l-0.128-0.079
		l-0.063-0.041c0.024,0.017-0.059-0.042,0.053,0.038l-0.004-0.002l-0.008-0.002l-0.016-0.007l-0.031-0.013l-0.25-0.098
		c-0.341-0.125-0.646-0.309-1.032-0.391c-0.371-0.098-0.726-0.24-1.135-0.299c-0.777-0.19-1.608-0.32-2.408-0.482
		c-0.399-0.076-0.784-0.164-1.161-0.258c-0.379-0.097-0.715-0.184-1.055-0.308c-0.678-0.217-1.184-0.458-1.518-0.677
		C116.479,76.852,116.29,76.717,116.29,76.717z"/>
</g>
<g>
	<path fill="#FFFFFF" d="M118.661,69.883c0,0,0.18,0.167,0.465,0.472c0.272,0.319,0.698,0.72,1.055,1.354
		c0.191,0.307,0.399,0.645,0.602,1.015c0.189,0.37,0.35,0.766,0.521,1.18c0.365,0.823,0.58,1.75,0.809,2.673
		c0.076,0.467,0.157,0.935,0.216,1.397c0.077,0.46,0.082,0.921,0.103,1.364c0.047,0.886-0.017,1.717-0.11,2.424
		c-0.058,0.705-0.242,1.289-0.341,1.693c-0.112,0.403-0.195,0.631-0.195,0.631s-0.086-0.233-0.201-0.633
		c-0.127-0.4-0.234-0.967-0.41-1.638c-0.083-0.335-0.17-0.696-0.244-1.077c-0.068-0.382-0.182-0.779-0.26-1.191
		c-0.088-0.412-0.154-0.84-0.257-1.268c-0.099-0.428-0.177-0.866-0.259-1.304c-0.367-1.741-0.734-3.482-1.01-4.788
		c-0.068-0.329-0.119-0.647-0.202-0.924c-0.076-0.276-0.124-0.526-0.167-0.729C118.692,70.126,118.661,69.883,118.661,69.883z"/>
</g>
<g>
	<path fill="#FFFFFF" d="M128.96,57.571c0,0,0.222,0.088,0.59,0.267c0.181,0.092,0.405,0.198,0.646,0.339
		c0.25,0.125,0.518,0.296,0.789,0.531c0.279,0.22,0.586,0.463,0.897,0.74c0.306,0.278,0.572,0.6,0.866,0.932
		c0.296,0.33,0.584,0.684,0.825,1.076c0.254,0.384,0.513,0.777,0.741,1.184c0.207,0.417,0.416,0.833,0.604,1.252
		c0.207,0.41,0.326,0.846,0.473,1.254c0.291,0.819,0.447,1.617,0.557,2.303c0.128,0.679,0.127,1.272,0.145,1.678
		c0.006,0.41-0.01,0.646-0.01,0.646s-0.147-0.192-0.372-0.532c-0.23-0.338-0.505-0.836-0.849-1.417
		c-0.172-0.291-0.355-0.604-0.531-0.94c-0.166-0.341-0.382-0.678-0.57-1.042c-0.202-0.356-0.371-0.744-0.59-1.109
		c-0.213-0.369-0.409-0.752-0.609-1.134c-0.211-0.374-0.421-0.747-0.629-1.115c-0.193-0.379-0.408-0.731-0.619-1.074
		c-0.213-0.338-0.391-0.701-0.586-1.007c-0.201-0.299-0.379-0.601-0.547-0.883c-0.162-0.281-0.324-0.553-0.494-0.778
		c-0.164-0.227-0.293-0.439-0.402-0.611C129.069,57.783,128.96,57.571,128.96,57.571z"/>
</g>
<g>
	<path fill="#FFFFFF" d="M138.804,63.281c0,0-0.219,0.092-0.604,0.222c-0.378,0.142-0.955,0.26-1.582,0.471
		c-0.317,0.098-0.656,0.203-1.015,0.292c-0.362,0.1-0.744,0.206-1.139,0.314c-0.793,0.191-1.641,0.429-2.497,0.605
		c-1.713,0.393-3.47,0.685-4.837,0.755c-1.359,0.096-2.304-0.028-2.304-0.028c0,0,0.79-0.531,2.023-1.086
		c1.225-0.585,2.918-1.186,4.68-1.592c0.891-0.178,1.78-0.346,2.642-0.399c0.845-0.083,1.675-0.064,2.371-0.003
		c0.698,0.021,1.241,0.194,1.642,0.275C138.579,63.206,138.804,63.281,138.804,63.281z"/>
</g>
<g>
	<path fill="#FFFFFF" d="M141.978,46.128c0,0,0.154,0.12,0.396,0.343c0.232,0.235,0.585,0.526,0.889,1.008
		c0.34,0.46,0.682,1.042,0.943,1.679c0.301,0.633,0.478,1.354,0.658,2.072c0.057,0.366,0.117,0.731,0.155,1.093
		c0.056,0.359,0.048,0.722,0.048,1.069c0.012,0.694-0.082,1.346-0.208,1.893c-0.087,0.547-0.301,0.994-0.419,1.297
		c-0.133,0.304-0.227,0.471-0.227,0.471s-0.073-0.187-0.17-0.5c-0.105-0.314-0.185-0.749-0.332-1.262
		c-0.143-0.513-0.256-1.098-0.41-1.721c-0.112-0.625-0.29-1.279-0.396-1.943c-0.068-0.33-0.148-0.656-0.203-0.984
		c-0.053-0.33-0.122-0.648-0.186-0.96c-0.107-0.638-0.219-1.208-0.292-1.724c-0.06-0.517-0.175-0.982-0.204-1.307
		C141.982,46.323,141.978,46.128,141.978,46.128z"/>
</g>
<g>
	<path fill="#FFFFFF" d="M149.542,52.255c0,0-0.223,0.003-0.602-0.021c-0.375-0.012-0.914-0.11-1.525-0.159
		c-0.307-0.026-0.633-0.053-0.967-0.101c-0.329-0.06-0.702-0.064-1.068-0.111c-0.371-0.032-0.745-0.108-1.134-0.124
		c-0.387-0.025-0.776-0.071-1.165-0.114c-0.391-0.029-0.783-0.041-1.168-0.082c-0.387-0.045-0.768-0.049-1.139-0.071
		c-0.37-0.012-0.733-0.073-1.077-0.072c-0.345-0.008-0.675-0.035-0.981-0.061c-0.617-0.059-1.135-0.057-1.512-0.11
		c-0.375-0.042-0.599-0.083-0.599-0.083s0.182-0.123,0.515-0.307c0.337-0.167,0.816-0.459,1.435-0.638
		c0.308-0.101,0.644-0.208,1.004-0.302c0.359-0.104,0.749-0.14,1.15-0.201c0.402-0.051,0.821-0.112,1.247-0.096
		c0.428-0.003,0.861,0.007,1.295,0.029c0.43,0.059,0.86,0.115,1.28,0.19c0.423,0.055,0.823,0.197,1.213,0.31
		c0.388,0.125,0.76,0.227,1.104,0.396c0.346,0.154,0.662,0.319,0.95,0.469c0.582,0.289,0.978,0.643,1.285,0.867
		C149.38,52.103,149.542,52.255,149.542,52.255z"/>
</g>
<path fill="#65BBA7" d="M148.555,79.591"/>
<g>
	<path fill="#583F16" d="M74.388,94.51c-0.022-0.065,0.042,1.793,0.042,1.793l2.167,0.438l0.479,2l2.679-0.668l1.034,1.992
		l2.616-1.05l2.072,1.999l2.298-1.094l2.3,1.216l2.298-1.224l2.301,1.651l2.232-1.315l2.234,1.332l2.232-1.828l2.234,0.833
		l0.913-1.352l2.41,0.188l0.328-1.54l1.463-0.504l6.325-22.956c-19.02,10.611-45.425-1.345-45.425-1.345l3.183,20.517L74.388,94.51z
		"/>
	<path fill="#583F16" d="M111.649,99.516l0.016-0.116c-0.009,0.042-0.015,0.084-0.026,0.124
		C111.641,99.521,111.649,99.516,111.649,99.516z"/>
	<path fill="#583F16" d="M111.747,98.882l-0.082,0.518c0.042-0.17,0.09-0.34,0.114-0.518H111.747z"/>
</g>
<path fill="#F8AFA8" d="M96.096,47.346c0,0,17.336,4.077,7.239,12.275c0,0,11.161,0.126,6.23,8.463c0,0,8.799-0.125,4.987,7.503
	c0,0-25.556,11.172-46.63,0c0,0-5.828-8.019,3.48-9.087c0,0-1.342-2.556,1.075-5.108c2.383-2.517,4.904-2.507,7.096-2.605
	c-0.658-1.595-1.168-4.845,0.793-6.23c4.595-3.253,8.89-0.55,12.213,0.548C99.343,55.334,98.857,48.961,96.096,47.346z"/>
<path fill="#F05151" d="M101.534,46.053c-0.428-3.858-4.432-5.286-7.568-3.263c-1.557-3.449-5.681-4.479-8.089-1.477
	c-2.647,3.29,4.371,13.999,4.371,13.999l0.185,0.056C90.433,55.368,102.011,50.289,101.534,46.053z"/>
<path fill="#F8AFA8" d="M96.097,47.346c3.489,0.737,7.432,1.98,9.887,4.159c1.214,1.078,2.107,2.516,2.137,3.98
	c0.018,0.844-1.155,4.152-2.659,4.136c0.002,0,11.16,0.127,6.229,8.463c0,0,8.8-0.125,4.988,7.503c0,0-25.558,11.172-46.631,0
	c0,0-5.828-8.019,3.481-9.087c0,0-1.344-2.556,1.074-5.108c2.382-2.517,4.904-2.507,7.095-2.605
	c-0.657-1.595,0.957-4.448,3.135-5.614c4.589-2.459,8.159,2.02,11.91,3.061C97.671,54.934,98.767,47.91,96.097,47.346z"/>
<path fill="#F37D7C" d="M71.403,66.5c0,0,21.939,10.546,40.287,1.584l1.575,0.139C113.266,68.223,99.049,81.416,71.403,66.5z"/>
<path fill="#F37D7C" d="M78.99,59.088c0,0,14.47,7.934,26.569,1.189l1.039,0.105C106.599,60.383,97.223,70.309,78.99,59.088z"/>
<path fill="#FFFFFF" d="M147.68,83.541c-0.687,1.195-2.038,2.164-4.149,4.611c-4.406,5.102-14.969,9.735-35.136,12.557
	c0,0,4.952,2.979,12.744,1.863s18.024-5.917,27.738-17.791c19.429-23.75,2.606-5.358,2.606-5.358S148.286,82.487,147.68,83.541z"/>
<g>
	<path fill="#65BBA7" d="M62.145,100.839l9.585,0.999c0,0-0.182-3.383-0.14-4.255c0.431-8.95,0.017-52.884,4.006-65.121
		c0.335-1.029,1.644-4.323,2.019-4.802c0.103-0.131-0.297-0.09-0.237-0.243V10.904C58.052,20.007,62.145,100.839,62.145,100.839z"/>
</g>
</svg>
